# Vertices
v 5.36475 0.00237601 0
v 5.38598 0.108869 2
v 5.36475 0.00237601 2
v 5.38598 0.108869 0
v 5.40577 0.21564 2
v 5.40577 0.21564 0
v 5.42411 0.322671 2
v 5.42411 0.322671 0
v 5.44099 0.42994 2
v 5.44099 0.42994 0
v 5.45641 0.537428 2
v 5.45641 0.537428 0
v 5.47038 0.645116 2
v 5.47038 0.645116 0
v 5.48288 0.752984 2
v 5.48288 0.752984 0
v 5.49391 0.861011 2
v 5.49391 0.861011 0
v 5.50348 0.969178 2
v 5.50348 0.969178 0
v 5.51158 1.07747 2
v 5.51158 1.07747 0
v 5.51821 1.18585 2
v 5.51821 1.18585 0
v 5.52337 1.29432 2
v 5.52337 1.29432 0
v 5.52705 1.40285 2
v 5.52705 1.40285 0
v 5.52926 1.51141 2
v 5.52926 1.51141 0
v 5.53 1.62 2
v 5.53 1.62 0
v 5.40916 2.76975 2
v 5.40916 2.76975 0
v 5.05191 3.86925 2
v 5.05191 3.86925 0
v 4.47386 4.87045 2
v 4.47386 4.87045 0
v 3.70029 5.72959 2
v 3.70029 5.72959 0
v 2.765 6.40912 2
v 2.765 6.40912 0
v 1.70886 6.87934 2
v 1.70886 6.87934 0
v 0.578042 7.11971 2
v 0.578042 7.11971 0
v -0.578042 7.11971 2
v -0.578042 7.11971 0
v -1.70886 6.87934 2
v -1.70886 6.87934 0
v -2.765 6.40912 2
v -2.765 6.40912 0
v -3.70029 5.72959 2
v -3.70029 5.72959 0
v -4.47386 4.87045 2
v -4.47386 4.87045 0
v -5.05191 3.86925 2
v -5.05191 3.86925 0
v -5.40916 2.76975 2
v -5.40916 2.76975 0
v -5.53 1.62 2
v -5.53 1.62 0
v -5.52926 1.51141 2
v -5.52926 1.51141 0
v -5.52705 1.40285 2
v -5.52705 1.40285 0
v -5.52337 1.29432 2
v -5.52337 1.29432 0
v -5.51821 1.18585 2
v -5.51821 1.18585 0
v -5.51158 1.07747 2
v -5.51158 1.07747 0
v -5.50348 0.969178 2
v -5.50348 0.969178 0
v -5.49391 0.861011 2
v -5.49391 0.861011 0
v -5.48288 0.752984 2
v -5.48288 0.752984 0
v -5.47038 0.645116 2
v -5.47038 0.645116 0
v -5.45641 0.537428 2
v -5.45641 0.537428 0
v -5.44099 0.42994 2
v -5.44099 0.42994 0
v -5.42411 0.322671 2
v -5.42411 0.322671 0
v -5.40577 0.21564 2
v -5.40577 0.21564 0
v -5.38598 0.108869 2
v -5.38598 0.108869 0
v -5.36475 0.00237601 2
v -5.36475 0.00237601 0
v -5.34823 -0.0655359 2
v -5.34823 -0.0655359 0
v -5.32701 -0.132128 2
v -5.32701 -0.132128 0
v -5.3012 -0.197076 2
v -5.3012 -0.197076 0
v -5.2709 -0.260062 2
v -5.2709 -0.260062 0
v -5.23629 -0.320778 2
v -5.23629 -0.320778 0
v -5.19751 -0.378928 2
v -5.19751 -0.378928 0
v -5.15477 -0.434227 2
v -5.15477 -0.434227 0
v -5.10827 -0.486406 2
v -5.10827 -0.486406 0
v -5.05824 -0.53521 2
v -5.05824 -0.53521 0
v -5.00493 -0.5804 2
v -5.00493 -0.5804 0
v -4.94858 -0.621756 2
v -4.94858 -0.621756 0
v -4.88949 -0.659075 2
v -4.88949 -0.659075 0
v -4.82793 -0.692175 2
v -4.82793 -0.692175 0
v -4.76422 -0.720895 2
v -4.76422 -0.720895 0
v -4.69865 -0.745094 2
v -4.69865 -0.745094 0
v -4.08945 -0.931785 2
v -4.08945 -0.931785 0
v -3.47287 -1.09244 2
v -3.47287 -1.09244 0
v -2.85002 -1.22676 2
v -2.85002 -1.22676 0
v -2.22204 -1.33451 2
v -2.22204 -1.33451 0
v -1.59004 -1.41549 2
v -1.59004 -1.41549 0
v -0.955172 -1.46956 2
v -0.955172 -1.46956 0
v -0.318582 -1.49662 2
v -0.318582 -1.49662 0
v 0.318582 -1.49662 2
v 0.318582 -1.49662 0
v 0.955172 -1.46956 2
v 0.955172 -1.46956 0
v 1.59004 -1.41549 2
v 1.59004 -1.41549 0
v 2.22204 -1.33451 2
v 2.22204 -1.33451 0
v 2.85002 -1.22676 2
v 2.85002 -1.22676 0
v 3.47287 -1.09244 2
v 3.47287 -1.09244 0
v 4.08945 -0.931785 2
v 4.08945 -0.931785 0
v 4.69865 -0.745094 2
v 4.69865 -0.745094 0
v 4.76422 -0.720895 2
v 4.76422 -0.720895 0
v 4.82793 -0.692175 2
v 4.82793 -0.692175 0
v 4.88949 -0.659075 2
v 4.88949 -0.659075 0
v 4.94858 -0.621756 2
v 4.94858 -0.621756 0
v 5.00493 -0.5804 2
v 5.00493 -0.5804 0
v 5.05824 -0.53521 2
v 5.05824 -0.53521 0
v 5.10827 -0.486406 2
v 5.10827 -0.486406 0
v 5.15477 -0.434227 2
v 5.15477 -0.434227 0
v 5.19751 -0.378928 2
v 5.19751 -0.378928 0
v 5.23629 -0.320778 2
v 5.23629 -0.320778 0
v 5.2709 -0.260062 2
v 5.2709 -0.260062 0
v 5.3012 -0.197076 2
v 5.3012 -0.197076 0
v 5.32701 -0.132128 2
v 5.32701 -0.132128 0
v 5.34823 -0.0655359 2
v 5.34823 -0.0655359 0

# Faces
f 1 2 3
f 1 4 2
f 4 5 2
f 4 6 5
f 6 7 5
f 6 8 7
f 8 9 7
f 8 10 9
f 10 11 9
f 10 12 11
f 12 13 11
f 12 14 13
f 14 15 13
f 14 16 15
f 16 17 15
f 16 18 17
f 18 19 17
f 18 20 19
f 20 21 19
f 20 22 21
f 22 23 21
f 22 24 23
f 24 25 23
f 24 26 25
f 26 27 25
f 26 28 27
f 28 29 27
f 28 30 29
f 30 31 29
f 30 32 31
f 32 33 31
f 32 34 33
f 34 35 33
f 34 36 35
f 36 37 35
f 36 38 37
f 38 39 37
f 38 40 39
f 40 41 39
f 40 42 41
f 42 43 41
f 42 44 43
f 44 45 43
f 44 46 45
f 46 47 45
f 46 48 47
f 48 49 47
f 48 50 49
f 50 51 49
f 50 52 51
f 52 53 51
f 52 54 53
f 54 55 53
f 54 56 55
f 56 57 55
f 56 58 57
f 58 59 57
f 58 60 59
f 60 61 59
f 60 62 61
f 62 63 61
f 62 64 63
f 64 65 63
f 64 66 65
f 66 67 65
f 66 68 67
f 68 69 67
f 68 70 69
f 70 71 69
f 70 72 71
f 72 73 71
f 72 74 73
f 74 75 73
f 74 76 75
f 76 77 75
f 76 78 77
f 78 79 77
f 78 80 79
f 80 81 79
f 80 82 81
f 82 83 81
f 82 84 83
f 84 85 83
f 84 86 85
f 86 87 85
f 86 88 87
f 88 89 87
f 88 90 89
f 90 91 89
f 90 92 91
f 92 93 91
f 92 94 93
f 94 95 93
f 94 96 95
f 96 97 95
f 96 98 97
f 98 99 97
f 98 100 99
f 100 101 99
f 100 102 101
f 102 103 101
f 102 104 103
f 104 105 103
f 104 106 105
f 106 107 105
f 106 108 107
f 108 109 107
f 108 110 109
f 110 111 109
f 110 112 111
f 112 113 111
f 112 114 113
f 114 115 113
f 114 116 115
f 116 117 115
f 116 118 117
f 118 119 117
f 118 120 119
f 120 121 119
f 120 122 121
f 122 123 121
f 122 124 123
f 124 125 123
f 124 126 125
f 126 127 125
f 126 128 127
f 128 129 127
f 128 130 129
f 130 131 129
f 130 132 131
f 132 133 131
f 132 134 133
f 134 135 133
f 134 136 135
f 136 137 135
f 136 138 137
f 138 139 137
f 138 140 139
f 140 141 139
f 140 142 141
f 142 143 141
f 142 144 143
f 144 145 143
f 144 146 145
f 146 147 145
f 146 148 147
f 148 149 147
f 148 150 149
f 150 151 149
f 150 152 151
f 152 153 151
f 152 154 153
f 154 155 153
f 154 156 155
f 156 157 155
f 156 158 157
f 158 159 157
f 158 160 159
f 160 161 159
f 160 162 161
f 162 163 161
f 162 164 163
f 164 165 163
f 164 166 165
f 166 167 165
f 166 168 167
f 168 169 167
f 168 170 169
f 170 171 169
f 170 172 171
f 172 173 171
f 172 174 173
f 174 175 173
f 174 176 175
f 176 177 175
f 176 178 177
f 178 179 177
f 178 180 179
f 180 3 179
f 180 1 3
