# Vertices
v -6.53 0.35 0
v -5.2 0.35 2
v -6.53 0.35 2
v -5.2 0.35 0
v -5.2 0.325 2
v -5.2 0.325 0
v -5.13 0.325 2
v -5.13 0.325 0
v -5.13 -0.375 2
v -5.13 -0.375 0
v -4.61 -0.375 2
v -4.61 -0.375 0
v -4.61 -0.455 2
v -4.61 -0.455 0
v -4.53 -0.455 2
v -4.53 -0.455 0
v -4.53 0.325 2
v -4.53 0.325 0
v -4.46 0.325 2
v -4.46 0.325 0
v -4.46 0.35 2
v -4.46 0.35 0
v -4.38 0.35 2
v -4.38 0.35 0
v -4.37477 0.349726 2
v -4.37477 0.349726 0
v -4.3696 0.348907 2
v -4.3696 0.348907 0
v -4.36455 0.347553 2
v -4.36455 0.347553 0
v -4.35966 0.345677 2
v -4.35966 0.345677 0
v -4.355 0.343301 2
v -4.355 0.343301 0
v -4.35061 0.340451 2
v -4.35061 0.340451 0
v -4.34654 0.337157 2
v -4.34654 0.337157 0
v -4.34284 0.333457 2
v -4.34284 0.333457 0
v -4.33955 0.329389 2
v -4.33955 0.329389 0
v -4.3367 0.325 2
v -4.3367 0.325 0
v -4.33432 0.320337 2
v -4.33432 0.320337 0
v -4.33245 0.315451 2
v -4.33245 0.315451 0
v -4.33109 0.310396 2
v -4.33109 0.310396 0
v -4.33027 0.305226 2
v -4.33027 0.305226 0
v -4.33 0.3 2
v -4.33 0.3 0
v -4.33 -1.5 2
v -4.33 -1.5 0
v -6.53 -1.5 2
v -6.53 -1.5 0

# Faces
f 1 2 3
f 1 4 2
f 4 5 2
f 4 6 5
f 6 7 5
f 6 8 7
f 8 9 7
f 8 10 9
f 10 11 9
f 10 12 11
f 12 13 11
f 12 14 13
f 14 15 13
f 14 16 15
f 16 17 15
f 16 18 17
f 18 19 17
f 18 20 19
f 20 21 19
f 20 22 21
f 22 23 21
f 22 24 23
f 24 25 23
f 24 26 25
f 26 27 25
f 26 28 27
f 28 29 27
f 28 30 29
f 30 31 29
f 30 32 31
f 32 33 31
f 32 34 33
f 34 35 33
f 34 36 35
f 36 37 35
f 36 38 37
f 38 39 37
f 38 40 39
f 40 41 39
f 40 42 41
f 42 43 41
f 42 44 43
f 44 45 43
f 44 46 45
f 46 47 45
f 46 48 47
f 48 49 47
f 48 50 49
f 50 51 49
f 50 52 51
f 52 53 51
f 52 54 53
f 54 55 53
f 54 56 55
f 56 57 55
f 56 58 57
f 58 3 57
f 58 1 3
f 1 6 4
f 6 1 10
f 8 6 10
f 10 1 58
f 56 10 58
f 14 10 56
f 10 14 12
f 16 14 56
f 56 54 16
f 16 54 20
f 18 16 20
f 20 54 24
f 24 22 20
f 54 28 24
f 54 32 28
f 54 38 32
f 40 38 54
f 54 44 40
f 46 44 54
f 48 46 54
f 54 52 48
f 52 50 48
f 44 42 40
f 32 38 36
f 36 34 32
f 32 30 28
f 24 28 26
f 3 2 5
f 5 9 3
f 7 9 5
f 9 57 3
f 55 57 9
f 13 55 9
f 9 11 13
f 15 55 13
f 55 15 53
f 15 19 53
f 17 19 15
f 19 23 53
f 23 19 21
f 53 23 27
f 53 27 31
f 53 31 37
f 39 53 37
f 53 39 43
f 45 53 43
f 47 53 45
f 53 47 51
f 51 47 49
f 43 39 41
f 31 35 37
f 35 31 33
f 31 27 29
f 23 25 27
