# Vertices
v 6.53 0.175 0
v 5.29 0.175 2
v 6.53 0.175 2
v 5.29 0.175 0
v 5.29 0.15 2
v 5.29 0.15 0
v 5.22 0.15 2
v 5.22 0.15 0
v 5.22 -0.55 2
v 5.22 -0.55 0
v 4.7 -0.55 2
v 4.7 -0.55 0
v 4.7 -0.63 2
v 4.7 -0.63 0
v 4.62 -0.63 2
v 4.62 -0.63 0
v 4.62 0.15 2
v 4.62 0.15 0
v 4.55 0.15 2
v 4.55 0.15 0
v 4.55 0.175 2
v 4.55 0.175 0
v 4.47 0.175 2
v 4.47 0.175 0
v 4.46477 0.174726 2
v 4.46477 0.174726 0
v 4.4596 0.173907 2
v 4.4596 0.173907 0
v 4.45455 0.172553 2
v 4.45455 0.172553 0
v 4.44966 0.170677 2
v 4.44966 0.170677 0
v 4.445 0.168301 2
v 4.445 0.168301 0
v 4.44061 0.165451 2
v 4.44061 0.165451 0
v 4.43654 0.162157 2
v 4.43654 0.162157 0
v 4.43284 0.158457 2
v 4.43284 0.158457 0
v 4.42955 0.154389 2
v 4.42955 0.154389 0
v 4.4267 0.15 2
v 4.4267 0.15 0
v 4.42432 0.145337 2
v 4.42432 0.145337 0
v 4.42245 0.140451 2
v 4.42245 0.140451 0
v 4.42109 0.135396 2
v 4.42109 0.135396 0
v 4.42027 0.130226 2
v 4.42027 0.130226 0
v 4.42 0.125 2
v 4.42 0.125 0
v 4.42 -1.5 2
v 4.42 -1.5 0
v 6.53 -1.5 2
v 6.53 -1.5 0

# Faces
f 1 2 3
f 1 4 2
f 4 5 2
f 4 6 5
f 6 7 5
f 6 8 7
f 8 9 7
f 8 10 9
f 10 11 9
f 10 12 11
f 12 13 11
f 12 14 13
f 14 15 13
f 14 16 15
f 16 17 15
f 16 18 17
f 18 19 17
f 18 20 19
f 20 21 19
f 20 22 21
f 22 23 21
f 22 24 23
f 24 25 23
f 24 26 25
f 26 27 25
f 26 28 27
f 28 29 27
f 28 30 29
f 30 31 29
f 30 32 31
f 32 33 31
f 32 34 33
f 34 35 33
f 34 36 35
f 36 37 35
f 36 38 37
f 38 39 37
f 38 40 39
f 40 41 39
f 40 42 41
f 42 43 41
f 42 44 43
f 44 45 43
f 44 46 45
f 46 47 45
f 46 48 47
f 48 49 47
f 48 50 49
f 50 51 49
f 50 52 51
f 52 53 51
f 52 54 53
f 54 55 53
f 54 56 55
f 56 57 55
f 56 58 57
f 58 3 57
f 58 1 3
f 52 54 48
f 48 50 52
f 44 48 54
f 48 44 46
f 54 42 44
f 54 40 42
f 40 54 36
f 40 36 38
f 36 54 32
f 36 32 34
f 32 54 28
f 32 28 30
f 54 26 28
f 54 24 26
f 20 24 54
f 22 24 20
f 16 20 54
f 20 16 18
f 16 54 56
f 14 16 56
f 56 10 14
f 56 58 10
f 58 1 10
f 10 1 6
f 6 8 10
f 1 4 6
f 10 12 14
f 51 47 53
f 47 51 49
f 43 53 47
f 47 45 43
f 53 43 41
f 53 41 39
f 39 35 53
f 39 37 35
f 35 31 53
f 35 33 31
f 31 27 53
f 31 29 27
f 53 27 25
f 53 25 23
f 19 53 23
f 21 19 23
f 15 53 19
f 19 17 15
f 15 55 53
f 13 55 15
f 55 13 9
f 55 9 57
f 57 9 3
f 9 5 3
f 5 9 7
f 3 5 2
f 9 13 11
